<svg width="1065" height="240" viewBox="0 0 1065 240" fill="none" xmlns="http://www.w3.org/2000/svg">
<path d="M910.637 239.889C897.084 239.889 885.161 237.23 874.867 231.912C864.574 226.594 856.597 218.788 850.935 208.495C845.274 198.201 842.443 185.592 842.443 170.667V162.432H878.727V173.755C878.727 183.705 881.644 191.596 887.477 197.429C893.31 203.091 900.944 205.921 910.379 205.921C919.987 205.921 927.621 203.091 933.282 197.429C939.115 191.596 942.031 183.705 942.031 173.755V74.1666H978.573V170.667C978.573 185.592 975.742 198.201 970.081 208.495C964.419 218.788 956.528 226.594 946.406 231.912C936.284 237.23 924.361 239.889 910.637 239.889ZM865.346 79.3133V47.1466H978.573V79.3133H865.346Z" fill="#211718"/>
<path d="M602.213 235V95.268H630.52V155.227H627.946C627.946 141.159 629.748 129.408 633.35 119.972C636.953 110.365 642.271 103.16 649.305 98.356C656.51 93.3809 665.431 90.8933 676.068 90.8933H677.612C688.42 90.8933 697.34 93.3809 704.374 98.356C711.58 103.16 716.898 110.365 720.329 119.972C723.932 129.408 725.733 141.159 725.733 155.227H716.726C716.726 141.159 718.528 129.408 722.13 119.972C725.904 110.365 731.308 103.16 738.342 98.356C745.548 93.3809 754.468 90.8933 765.105 90.8933H766.649C777.457 90.8933 786.464 93.3809 793.669 98.356C800.874 103.16 806.278 110.365 809.881 119.972C813.655 129.408 815.542 141.159 815.542 155.227V235H779.773V151.881C779.773 143.132 777.543 136.184 773.082 131.037C768.622 125.719 762.274 123.06 754.04 123.06C745.805 123.06 739.2 125.805 734.225 131.295C729.25 136.613 726.762 143.818 726.762 152.911V235H690.993V151.881C690.993 143.132 688.763 136.184 684.302 131.037C679.842 125.719 673.494 123.06 665.26 123.06C657.025 123.06 650.42 125.805 645.445 131.295C640.47 136.613 637.982 143.818 637.982 152.911V235H602.213Z" fill="#211718"/>
<path d="M494.723 239.889C482.371 239.889 471.477 237.916 462.042 233.971C452.606 230.025 444.629 224.707 438.11 218.016C431.59 211.154 426.615 203.434 423.184 194.856C419.925 186.278 418.295 177.357 418.295 168.093V162.689C418.295 153.082 420.01 143.99 423.442 135.412C427.044 126.663 432.105 118.943 438.624 112.252C445.315 105.39 453.378 100.072 462.814 96.2973C472.249 92.3516 482.886 90.3787 494.723 90.3787C506.56 90.3787 517.197 92.3516 526.632 96.2973C536.068 100.072 544.045 105.39 550.564 112.252C557.255 118.943 562.316 126.663 565.747 135.412C569.178 143.99 570.894 153.082 570.894 162.689V168.093C570.894 177.357 569.178 186.278 565.747 194.856C562.487 203.434 557.598 211.154 551.079 218.016C544.56 224.707 536.582 230.025 527.147 233.971C517.711 237.916 506.903 239.889 494.723 239.889ZM494.723 209.267C503.472 209.267 510.849 207.38 516.854 203.605C522.858 199.66 527.404 194.427 530.492 187.908C533.58 181.217 535.124 173.669 535.124 165.263C535.124 156.685 533.495 149.136 530.235 142.617C527.147 135.927 522.515 130.694 516.339 126.92C510.334 122.974 503.129 121.001 494.723 121.001C486.317 121.001 479.026 122.974 472.85 126.92C466.845 130.694 462.213 135.927 458.954 142.617C455.694 149.136 454.064 156.685 454.064 165.263C454.064 173.669 455.608 181.217 458.696 187.908C461.956 194.427 466.588 199.66 472.592 203.605C478.597 207.38 485.974 209.267 494.723 209.267Z" fill="#211718"/>
<path d="M320.067 239.889C307.715 239.889 296.821 237.916 287.385 233.971C277.95 230.025 269.972 224.707 263.453 218.016C256.934 211.154 251.959 203.434 248.528 194.856C245.268 186.278 243.639 177.357 243.639 168.093V162.689C243.639 153.082 245.354 143.99 248.785 135.412C252.388 126.663 257.449 118.943 263.968 112.252C270.659 105.39 278.722 100.072 288.157 96.2973C297.593 92.3516 308.229 90.3787 320.067 90.3787C331.904 90.3787 342.54 92.3516 351.976 96.2973C361.412 100.072 369.389 105.39 375.908 112.252C382.599 118.943 387.66 126.663 391.091 135.412C394.522 143.99 396.237 153.082 396.237 162.689V168.093C396.237 177.357 394.522 186.278 391.091 194.856C387.831 203.434 382.942 211.154 376.423 218.016C369.904 224.707 361.926 230.025 352.491 233.971C343.055 237.916 332.247 239.889 320.067 239.889ZM320.067 209.267C328.816 209.267 336.193 207.38 342.197 203.605C348.202 199.66 352.748 194.427 355.836 187.908C358.924 181.217 360.468 173.669 360.468 165.263C360.468 156.685 358.838 149.136 355.579 142.617C352.491 135.927 347.859 130.694 341.683 126.92C335.678 122.974 328.473 121.001 320.067 121.001C311.66 121.001 304.369 122.974 298.193 126.92C292.189 130.694 287.557 135.927 284.297 142.617C281.038 149.136 279.408 156.685 279.408 165.263C279.408 173.669 280.952 181.217 284.04 187.908C287.3 194.427 291.932 199.66 297.936 203.605C303.94 207.38 311.317 209.267 320.067 209.267Z" fill="#211718"/>
<path d="M176.299 235V47.1466H212.069V235H176.299ZM158.801 73.9093V47.1466H212.069V73.9093H158.801Z" fill="#211718"/>
<path d="M30.7828 236.287V206.951H77.8748C86.4526 206.951 92.9717 204.635 97.4322 200.003C101.893 195.199 104.123 188.68 104.123 180.445C104.123 172.211 101.893 165.863 97.4322 161.403C92.9717 156.771 86.4526 154.455 77.8748 154.455H30.7828V132.067H75.3015C87.8251 132.067 98.9762 133.611 108.755 136.699C118.705 139.615 126.425 144.59 131.915 151.624C137.576 158.658 140.407 168.093 140.407 179.931V183.533C140.407 194.684 137.919 204.206 132.944 212.097C128.141 219.817 120.849 225.822 111.071 230.111C101.464 234.228 89.5406 236.287 75.3015 236.287H30.7828ZM0.160156 236.287V45.86H35.9295V236.287H0.160156ZM30.7828 148.536V126.148H70.9268C79.6762 126.148 86.1095 123.832 90.2268 119.2C94.3442 114.568 96.4028 108.392 96.4028 100.672C96.4028 92.952 94.3442 86.776 90.2268 82.144C86.1095 77.512 79.6762 75.196 70.9268 75.196H30.7828V45.86H67.5815C88.8544 45.86 104.981 50.3204 115.96 59.2413C127.111 68.1622 132.687 80.9431 132.687 97.584V101.187C132.687 112.852 129.856 122.202 124.195 129.236C118.705 136.098 111.071 141.073 101.292 144.161C91.5135 147.078 80.2766 148.536 67.5815 148.536H30.7828Z" fill="#211718"/>
<path d="M1065 25C1065 38.8071 1053.81 50 1040 50C1026.19 50 1015 38.8071 1015 25C1015 11.1929 1026.19 0 1040 0C1053.81 0 1065 11.1929 1065 25Z" fill="#FF7B8A"/>
</svg>
