<svg width="1019" height="154" viewBox="0 0 1019 154" fill="none" xmlns="http://www.w3.org/2000/svg">
<path d="M986.771 0C968.97 0 954.557 14.4281 954.557 32.2143C954.557 50.0005 968.985 64.4286 986.771 64.4286V70.7882C986.771 70.7882 1016.18 63.0616 1018.79 35.7359C1018.79 35.6021 1018.82 35.4833 1018.84 35.3495C1018.93 34.3243 1018.99 33.2841 1019 32.2143C1019 14.4132 1004.57 0 986.786 0H986.771ZM986.578 52.898C976.786 52.7643 968.91 47.8905 968.985 42.0212C969.059 36.1519 977.068 31.5011 986.875 31.6348C996.667 31.7685 1004.54 36.6423 1004.47 42.5116C1004.39 48.3809 996.385 53.0317 986.578 52.898Z" fill="white"/>
<path d="M89.4661 127.609C89.4661 106.078 118.04 99.3764 135.722 96.6127C136.822 96.4343 137.461 95.5725 137.461 94.369V90.2382C137.461 81.2782 136.198 76.4639 130.67 76.4639C124.043 76.4639 121.353 87.3109 115.989 92.8236C113.939 94.889 110.774 96.0926 107.46 96.0926C100.67 96.0926 93.4037 91.62 93.4037 83.0018C93.4037 69.2275 112.185 62.6896 130.655 62.6896C150.076 62.6896 169.021 69.0641 169.021 92.1252V126.732C169.021 133.968 173.122 130.343 175.975 134.473C179.289 139.466 171.087 150.997 157.981 150.997C152.141 150.997 145.99 149.793 141.874 144.8C141.562 144.28 141.086 144.117 140.611 144.117C140.299 144.117 139.823 144.295 139.511 144.637C134.296 149.466 126.881 152.215 117.416 152.215C104.786 152.215 89.4661 146.539 89.4661 127.594V127.609ZM130.833 133.82H131.933C134.459 133.478 137.461 131.932 137.461 129.51V112.467C137.461 111.085 136.837 110.922 135.722 110.922C129.244 112.304 123.092 115.573 122.78 123.656C122.468 130.031 126.257 133.82 130.833 133.82Z" fill="white"/>
<path d="M259.185 123.714C260.092 147.384 234.4 153.09 222.216 153.551C190.834 154.739 172.854 134.472 182.052 121.351C186.019 115.734 196.02 115.17 200.522 123.743C204.133 130.891 208.501 140.207 221.191 139.732C224.192 139.613 229.809 137.577 229.556 131.024C229.289 123.922 221.696 122.213 210.136 117.176C200.789 113.164 180.536 107.919 182.245 86.8782C182.914 78.0965 189.333 62.3609 215.708 61.3653C242.246 60.3549 258.71 75.7637 252.513 88.7653C249.259 95.4518 240.225 95.437 234.935 88.1561C231.414 83.3715 228.085 74.9316 218.739 75.2882C214.727 75.4368 210.284 77.2496 210.507 82.896C210.834 91.4548 221.8 93.9511 228.041 95.541C238.843 98.2305 258.398 102.777 259.2 123.699L259.185 123.714Z" fill="white"/>
<path d="M307.061 152.229C286.229 150.52 262.439 133.506 264.847 104.1C266.912 78.9143 287.581 60.7566 311.311 62.7032C335.04 64.6497 345.902 82.9114 345.07 95.0661C344.312 104.398 337.566 107.206 327.507 109.048C321.905 110.014 301.028 112.912 301.028 112.912C298.576 113.06 298.383 115.527 299.156 117.904C302.351 126.493 308.027 130.683 316.586 131.381C323.198 131.916 329.364 128.172 332.826 125.616C337.507 122.095 340.345 123.046 341.98 124.947C347.225 130.341 333.881 154.413 307.076 152.229H307.061ZM303.316 98.9145C311.251 101.351 318.874 99.4792 320.345 94.7243C321.801 89.9694 316.556 84.1298 308.621 81.693C300.686 79.2561 293.064 81.1283 291.593 85.8832C290.137 90.6381 295.382 96.4777 303.316 98.9145Z" fill="white"/>
<path d="M73.3886 125.097L60.0601 104.666C59.2725 103.447 59.4211 102.065 60.5355 101.203C68.7823 94.9776 75.766 88.5733 78.6338 84.2345C84.6665 74.7099 81.4867 62.9416 66.8952 62.9416H66.2563C60.5355 62.9416 48.7969 63.1199 48.158 70.5643C47.3705 77.652 53.0763 77.652 48.158 85.2747C46.5086 87.8304 38.5294 96.092 34.5769 98.2466V59.212C34.5769 49.9102 27.9795 41.9458 18.8561 40.1628C15.8248 39.5684 12.5558 39.1821 9.25715 39.2266V39.2861C9.01941 39.2712 8.79652 39.2415 8.54392 39.2266C4.1308 39.2266 0 40.5788 0 46.2847C0 52.7483 7.0283 53.4913 7.0283 59.212V128.945C7.0283 135.557 0 137.207 0 144.428C0 148.633 3.03123 152.096 10.0595 152.096H19.287C26.0478 152.096 34.5917 146.984 34.5917 137.222V116.791H34.8295C36.4194 116.791 37.5338 117.831 38.9603 120.594L47.3705 137.207C53.5667 149.317 57.8461 152.096 69.2726 152.096C80.6992 152.096 86.5685 145.691 86.5685 141.709C86.5685 135.127 80.3723 135.647 73.4034 125.097H73.3886Z" fill="white"/>
<path d="M456.141 66.3445C460.539 70.7428 461.564 76.2555 461.564 83.2392C461.564 88.0684 458.801 90.8173 455.442 90.8173C452.515 90.8173 450.019 88.321 447.344 85.3937C442.857 80.7429 437.344 74.3684 428.295 74.3684C422.604 74.3684 419.855 77.4739 419.855 81.2629C419.855 87.1174 425.888 88.4101 438.637 93.1501C451.817 97.9793 465.443 104.532 465.443 123.403C465.443 140.387 450.539 152.452 427.522 152.452C418.473 152.452 404.075 150.045 397.537 143.834C394.521 141.16 392.188 134.532 392.188 125.989C392.188 121.427 394.342 118.321 398.562 118.321C400.538 118.321 402.44 120.045 404.417 122.11C409.246 127.281 415.531 135.721 426.913 135.721C432.262 135.721 435.1 132.794 435.1 128.574C435.1 121.858 425.279 120.387 413.808 114.532C404.328 109.703 393.986 104.28 393.986 88.425C393.986 71.5303 410.182 59.9849 429.662 59.9849C438.711 59.9849 451.549 61.6194 456.126 66.3594L456.141 66.3445Z" fill="white"/>
<path d="M509.247 110.476C509.247 120.387 512.352 128.055 520.703 128.055C524.581 128.055 527.078 125.989 528.89 124.696C529.752 124.087 530.361 123.656 531.298 123.656C532.769 123.656 534.136 124.86 534.136 128.485C534.136 130.462 533.452 132.884 532.323 135.38C528.965 142.527 519.826 151.665 504.581 151.665C486.141 151.665 479.246 139.08 479.246 120.12C479.246 112.453 480.361 98.0542 480.361 86.6871C480.361 82.898 479.246 80.8326 476.141 80.2234C471.832 79.6142 468.815 78.4106 468.815 75.0525C468.815 71.6944 469.425 68.0688 473.125 66.1817C479.41 62.7344 485.532 58.247 489.93 54.1162C497.256 47.1324 498.637 39.8961 504.328 39.8961C507.865 39.8961 510.792 42.4816 510.792 48.6035C510.792 52.4817 509.93 62.7344 509.93 63.5071C509.93 64.0271 510.019 64.3689 510.703 64.3689C512.679 64.3689 522.159 63.5962 524.581 63.5962C529.069 63.5962 531.565 64.7998 531.565 70.2382C531.565 73.5963 529.752 78.4255 527.687 80.8326C527.078 81.4419 525.785 82.0362 523.809 82.0362C521.832 82.0362 514.507 81.427 511.565 81.427C511.045 81.427 510.094 81.6053 509.93 83.329C509.589 87.2072 509.247 101.338 509.247 110.476Z" fill="white"/>
<path d="M586.365 95.9127C587.569 94.9617 588.698 92.8963 588.698 86.8635C588.698 79.018 585.162 73.327 578.356 73.327C572.502 73.327 568.624 78.4088 566.038 87.1161C564.493 92.1979 562.249 96.1653 555.696 96.1653C548.624 96.1653 542.68 91.3361 542.68 82.1978C542.68 71.425 555.429 60.1322 578.446 60.1322C599.218 60.1322 618.342 68.8396 618.342 94.5159C618.342 105.289 617.48 113.476 617.48 123.045C617.48 126.151 618.431 129.94 622.399 129.94C623.87 129.94 624.806 129.42 626.098 129.42C627.213 129.42 628 131.143 628 133.12C628 143.803 618.862 151.56 607.569 151.56C598.773 151.56 593.958 148.543 591.016 143.461C590.585 142.778 590.065 141.916 589.382 141.916C588.609 141.916 587.911 142.689 587.227 143.387C582.056 148.216 573.186 152.005 564.731 152.005C550.258 152.005 539.054 144.68 539.054 130.207C539.054 116.596 548.282 108.231 563.185 102.718C573.527 99.0182 583.691 97.9781 586.365 95.9127ZM587.495 110.474C584.568 110.474 581.462 111.158 578.356 112.54C572.755 114.873 568.535 119.345 568.535 124.784C568.535 129.182 571.373 132.793 576.633 132.793C585.162 132.793 588.951 125.645 588.951 117.711C588.951 111.589 588.342 110.474 587.48 110.474H587.495Z" fill="white"/>
<path d="M668.328 110.476C668.328 120.387 671.433 128.055 679.784 128.055C683.662 128.055 686.159 125.989 687.971 124.696C688.833 124.087 689.442 123.656 690.379 123.656C691.85 123.656 693.217 124.86 693.217 128.485C693.217 130.462 692.533 132.884 691.404 135.38C688.046 142.527 678.907 151.665 663.662 151.665C645.222 151.665 638.328 139.08 638.328 120.12C638.328 112.453 639.442 98.0542 639.442 86.6871C639.442 82.898 638.328 80.8326 635.222 80.2234C630.913 79.6142 627.896 78.4106 627.896 75.0525C627.896 71.6944 628.506 68.0688 632.206 66.1817C638.491 62.7344 644.613 58.247 649.011 54.1162C656.337 47.1324 657.719 39.8961 663.41 39.8961C666.946 39.8961 669.873 42.4816 669.873 48.6035C669.873 52.4817 669.011 62.7344 669.011 63.5071C669.011 64.0271 669.1 64.3689 669.784 64.3689C671.76 64.3689 681.24 63.5962 683.662 63.5962C688.15 63.5962 690.646 64.7998 690.646 70.2382C690.646 73.5963 688.833 78.4255 686.768 80.8326C686.159 81.4419 684.866 82.0362 682.89 82.0362C680.913 82.0362 673.588 81.427 670.646 81.427C670.126 81.427 669.175 81.6053 669.011 83.329C668.67 87.2072 668.328 101.338 668.328 110.476Z" fill="white"/>
<path d="M737.02 101.517V123.151C737.02 130.729 738.312 133.582 740.898 136.599C743.394 139.615 746.411 140.298 746.411 144.697C746.411 148.144 744.598 150.477 739.085 150.477C733.572 150.477 727.629 149.957 722.711 149.957C716.336 149.957 711.329 150.477 703.84 150.477C699.53 150.477 697.896 147.981 697.896 145.053C697.896 140.833 701.343 138.501 702.978 136.688C707.198 131.338 707.629 126.257 707.629 121.784V93.4332C707.629 87.3113 704.865 83.7749 702.458 82.1404C700.556 80.6693 698.49 79.3766 698.49 76.5385C698.49 71.2785 704.865 70.8475 712.621 67.6677C721.329 64.1313 728.565 60.3422 731.834 60.3422C735.801 60.3422 737.956 62.0659 737.956 66.2858C737.956 72.2294 737.005 82.6604 737.005 101.531L737.02 101.517ZM726.336 22.1398C734.003 22.1398 740.125 27.2215 740.125 35.0671C740.125 45.7507 728.58 54.4581 717.109 54.4581C708.832 54.4581 704.954 49.8072 704.954 43.4327C704.954 33.0017 715.296 22.1398 726.321 22.1398H726.336Z" fill="white"/>
<path d="M795.966 60.313C820.276 60.313 841.985 77.3711 841.985 108.233C841.985 137.283 821.643 151.666 796.992 151.666C769.666 151.666 752.088 132.795 752.088 106.673C752.088 79.1839 770.528 60.313 795.951 60.313H795.966ZM783.381 95.5585C783.381 103.998 784.673 114.771 788.121 122.706C791.137 129.348 795.624 133.137 800.795 133.137C806.576 133.137 812.088 128.828 812.088 115.99C812.088 107.55 809.845 96.2569 806.397 88.4113C802.697 80.0457 797.957 75.8258 793.292 75.8258C788.373 75.8258 783.381 80.1349 783.381 95.5585Z" fill="white"/>
<path d="M941.094 125.899C941.094 130.208 942.476 134.606 945.403 137.103C948.598 139.867 951.347 140.55 951.347 144.681C951.347 148.128 948.94 150.461 943.412 150.461C938.33 150.461 933.323 149.941 928.33 149.941C922.045 149.941 919.623 150.461 913.07 150.461C908.939 150.461 907.379 147.965 907.379 145.037C907.379 140.981 908.924 137.623 909.712 135.468C911.346 130.55 913.159 114.963 913.159 101.337C913.159 86.6862 908.761 80.2225 900.232 80.2225C895.061 80.2225 887.646 84.6208 887.646 94.6209V123.15C887.646 130.728 888.166 133.581 890.752 136.598C893.248 139.614 896.265 140.297 896.265 144.696C896.265 148.143 894.452 150.476 888.939 150.476C883.426 150.476 878.166 149.956 873.426 149.956C867.141 149.956 861.45 150.476 854.555 150.476C850.157 150.476 848.612 147.98 848.612 145.052C848.612 140.832 852.059 138.499 853.604 136.687C857.914 131.337 858.344 126.256 858.344 121.783V90.4158C858.344 84.8139 854.897 82.4068 852.743 81.1884C850.841 79.9848 849.295 78.7812 849.295 76.1957C849.295 71.2031 855.581 70.4156 863.174 66.9683C872.906 62.4809 874.897 60.5938 878.166 60.5938C881.866 60.5938 883.947 62.0648 885.403 67.2358C886.012 69.9995 886.606 72.585 887.988 72.585C890.054 72.585 900.054 60.3412 915.908 60.3412C935.641 60.3412 943.397 72.585 943.397 91.7977C943.397 104.547 941.065 119.554 941.065 125.929L941.094 125.899Z" fill="white"/>
</svg>
