<svg width="186" height="28" viewBox="0 0 186 28" fill="none" xmlns="http://www.w3.org/2000/svg">
<path d="M179.879 0C176.634 0 174.007 2.63011 174.007 5.87237C174.007 9.11463 176.637 11.7447 179.879 11.7447V12.904C179.879 12.904 185.24 11.4955 185.716 6.51432C185.716 6.48994 185.722 6.46827 185.724 6.4439C185.741 6.257 185.752 6.06739 185.754 5.87237C185.754 2.6274 183.124 0 179.882 0H179.879ZM179.844 9.64282C178.059 9.61844 176.623 8.73 176.637 7.66008C176.65 6.59016 178.11 5.74235 179.898 5.76673C181.683 5.79111 183.119 6.67955 183.105 7.74947C183.092 8.81939 181.632 9.6672 179.844 9.64282Z" fill="#2F5A9D"/>
<path d="M16.3088 23.2619C16.3088 19.337 21.5176 18.1154 24.7409 17.6116C24.9413 17.5791 25.0578 17.422 25.0578 17.2026V16.4496C25.0578 14.8163 24.8276 13.9387 23.8199 13.9387C22.6119 13.9387 22.1216 15.916 21.1438 16.9209C20.77 17.2974 20.1931 17.5168 19.589 17.5168C18.3512 17.5168 17.0266 16.7015 17.0266 15.1305C17.0266 12.6195 20.4504 11.4277 23.8172 11.4277C27.3575 11.4277 30.811 12.5897 30.811 16.7936V23.102C30.811 24.4212 31.5586 23.7603 32.0786 24.5133C32.6827 25.4234 31.1875 27.5253 28.7985 27.5253C27.734 27.5253 26.6126 27.3059 25.8623 26.3958C25.8054 26.301 25.7187 26.2712 25.632 26.2712C25.5752 26.2712 25.4885 26.3037 25.4316 26.366C24.4809 27.2463 23.1292 27.7474 21.4038 27.7474C19.1015 27.7474 16.3088 26.7127 16.3088 23.2591V23.2619ZM23.8497 24.3941H24.0502C24.5107 24.3318 25.0578 24.0501 25.0578 23.6086V20.5017C25.0578 20.2498 24.944 20.22 24.7409 20.22C23.5599 20.4719 22.4385 21.0678 22.3816 22.5414C22.3248 23.7034 23.0155 24.3941 23.8497 24.3941Z" fill="white"/>
<path d="M47.247 22.5519C47.4123 26.8668 42.729 27.9069 40.5079 27.9908C34.7872 28.2075 31.5097 24.5129 33.1864 22.1212C33.9096 21.0973 35.7325 20.9944 36.5533 22.5573C37.2115 23.8601 38.0078 25.5585 40.321 25.4718C40.8682 25.4501 41.892 25.079 41.846 23.8845C41.7972 22.5898 40.4131 22.2783 38.3058 21.3601C36.602 20.6287 32.9101 19.6726 33.2216 15.8371C33.3435 14.2363 34.5136 11.3678 39.3215 11.1863C44.1592 11.0021 47.1604 13.811 46.0309 16.1811C45.4377 17.4 43.7908 17.3973 42.8265 16.07C42.1846 15.1979 41.5778 13.6593 39.8741 13.7243C39.1427 13.7514 38.3329 14.0819 38.3735 15.1112C38.4331 16.6714 40.4321 17.1264 41.5697 17.4163C43.5389 17.9065 47.1035 18.7354 47.2498 22.5492L47.247 22.5519Z" fill="white"/>
<path d="M55.9744 27.7499C52.1768 27.4384 47.8403 24.337 48.2791 18.9765C48.6556 14.3854 52.4233 11.0754 56.749 11.4302C61.0748 11.7851 63.0548 15.114 62.9031 17.3297C62.765 19.0307 61.5352 19.5426 59.7015 19.8785C58.6803 20.0546 54.8746 20.5828 54.8746 20.5828C54.4277 20.6099 54.3925 21.0595 54.5334 21.4929C55.1157 23.0585 56.1504 23.8223 57.7106 23.9496C58.916 24.0471 60.0401 23.3646 60.6712 22.8987C61.5244 22.2567 62.0418 22.4301 62.3397 22.7768C63.2959 23.76 60.8635 28.148 55.9771 27.7499H55.9744ZM55.2918 18.0312C56.7382 18.4754 58.1277 18.1341 58.3959 17.2674C58.6614 16.4006 57.7052 15.3361 56.2588 14.8919C54.8124 14.4477 53.4228 14.789 53.1547 15.6557C52.8892 16.5225 53.8454 17.587 55.2918 18.0312Z" fill="white"/>
<path d="M13.3781 22.804L10.9484 19.0796C10.8048 18.8575 10.8319 18.6056 11.0351 18.4485C12.5384 17.3135 13.8114 16.1461 14.3342 15.3552C15.4339 13.6189 14.8543 11.4737 12.1944 11.4737H12.0779C11.0351 11.4737 8.89523 11.5062 8.77876 12.8632C8.6352 14.1552 9.67532 14.1552 8.77876 15.5448C8.4781 16.0107 7.02355 17.5167 6.30304 17.9094V10.7938C6.30304 9.09818 5.1004 7.64635 3.43729 7.32131C2.88472 7.21296 2.28881 7.14253 1.68749 7.15066V7.1615C1.64415 7.15879 1.60352 7.15337 1.55748 7.15066C0.753007 7.15066 0 7.39715 0 8.43727C0 9.61554 1.28119 9.75097 1.28119 10.7938V23.5055C1.28119 24.7109 0 25.0115 0 26.328C0 27.0945 0.552566 27.7256 1.83376 27.7256H3.51584C4.74828 27.7256 6.30575 26.7938 6.30575 25.0143V21.2899H6.34909C6.63892 21.2899 6.84207 21.4795 7.1021 21.9833L8.6352 25.0115C9.76471 27.2191 10.5448 27.7256 12.6278 27.7256C14.7107 27.7256 15.7806 26.5582 15.7806 25.8323C15.7806 24.6323 14.6511 24.7271 13.3808 22.804H13.3781Z" fill="white"/>
<path d="M83.1504 12.094C83.9521 12.8958 84.139 13.9007 84.139 15.1737C84.139 16.0541 83.6352 16.5552 83.0231 16.5552C82.4895 16.5552 82.0344 16.1001 81.5468 15.5665C80.7288 14.7187 79.7239 13.5567 78.0743 13.5567C77.0369 13.5567 76.5358 14.1228 76.5358 14.8135C76.5358 15.8807 77.6355 16.1164 79.9596 16.9804C82.3621 17.8607 84.846 19.0552 84.846 22.4952C84.846 25.5912 82.1292 27.7907 77.9335 27.7907C76.2839 27.7907 73.6592 27.3519 72.4674 26.2196C71.9176 25.7321 71.4923 24.524 71.4923 22.9665C71.4923 22.135 71.8851 21.5689 72.6543 21.5689C73.0146 21.5689 73.3613 21.8831 73.7215 22.2596C74.6018 23.2022 75.7476 24.7407 77.8224 24.7407C78.7976 24.7407 79.3149 24.2071 79.3149 23.4379C79.3149 22.2135 77.5245 21.9454 75.4334 20.8782C73.7053 19.9979 71.8201 19.0092 71.8201 16.1191C71.8201 13.0393 74.7725 10.9347 78.3235 10.9347C79.9731 10.9347 82.3134 11.2326 83.1477 12.0967L83.1504 12.094Z" fill="white"/>
<path d="M92.8312 20.1388C92.8312 21.9455 93.3973 23.3432 94.9196 23.3432C95.6265 23.3432 96.0816 22.9667 96.412 22.731C96.5691 22.62 96.6802 22.5414 96.8508 22.5414C97.119 22.5414 97.3682 22.7608 97.3682 23.4217C97.3682 23.782 97.2436 24.2235 97.0377 24.6785C96.4256 25.9814 94.7598 27.6472 91.9807 27.6472C88.6192 27.6472 87.3624 25.353 87.3624 21.8967C87.3624 20.4991 87.5656 17.8744 87.5656 15.8023C87.5656 15.1116 87.3624 14.7351 86.7963 14.624C86.0108 14.5129 85.4609 14.2935 85.4609 13.6814C85.4609 13.0692 85.572 12.4083 86.2465 12.0643C87.3922 11.4359 88.5082 10.6179 89.3099 9.86489C90.6453 8.59182 90.8972 7.27271 91.9346 7.27271C92.5793 7.27271 93.1129 7.74401 93.1129 8.85998C93.1129 9.56694 92.9558 11.4359 92.9558 11.5768C92.9558 11.6716 92.972 11.7339 93.0966 11.7339C93.4569 11.7339 95.185 11.593 95.6265 11.593C96.4445 11.593 96.8996 11.8124 96.8996 12.8038C96.8996 13.4159 96.5691 14.2963 96.1926 14.7351C96.0816 14.8461 95.8459 14.9545 95.4857 14.9545C95.1254 14.9545 93.7901 14.8434 93.2537 14.8434C93.1589 14.8434 92.9856 14.8759 92.9558 15.1901C92.8935 15.8971 92.8312 18.473 92.8312 20.1388Z" fill="white"/>
<path d="M106.889 17.484C107.108 17.3106 107.314 16.9341 107.314 15.8344C107.314 14.4042 106.67 13.3668 105.429 13.3668C104.362 13.3668 103.655 14.2932 103.184 15.8805C102.902 16.8068 102.493 17.53 101.298 17.53C100.009 17.53 98.9256 16.6497 98.9256 14.9839C98.9256 13.0201 101.25 10.9615 105.445 10.9615C109.232 10.9615 112.718 12.5488 112.718 17.2294C112.718 19.1932 112.561 20.6856 112.561 22.43C112.561 22.9961 112.734 23.6868 113.458 23.6868C113.726 23.6868 113.896 23.592 114.132 23.592C114.335 23.592 114.479 23.9062 114.479 24.2665C114.479 26.214 112.813 27.6279 110.754 27.6279C109.151 27.6279 108.273 27.0781 107.737 26.1517C107.658 26.0271 107.563 25.87 107.439 25.87C107.298 25.87 107.171 26.0108 107.046 26.1382C106.103 27.0185 104.486 27.7092 102.945 27.7092C100.307 27.7092 98.2646 26.3738 98.2646 23.7356C98.2646 21.2544 99.9467 19.7295 102.664 18.7246C104.549 18.0501 106.401 17.8605 106.889 17.484ZM107.095 20.1385C106.561 20.1385 105.995 20.2631 105.429 20.515C104.408 20.9402 103.639 21.7555 103.639 22.7469C103.639 23.5487 104.156 24.2069 105.115 24.2069C106.67 24.2069 107.36 22.904 107.36 21.4576C107.36 20.3416 107.249 20.1385 107.092 20.1385H107.095Z" fill="white"/>
<path d="M121.83 20.1388C121.83 21.9455 122.396 23.3432 123.918 23.3432C124.625 23.3432 125.08 22.9667 125.411 22.731C125.568 22.62 125.679 22.5414 125.85 22.5414C126.118 22.5414 126.367 22.7608 126.367 23.4217C126.367 23.782 126.242 24.2235 126.037 24.6785C125.424 25.9814 123.759 27.6472 120.979 27.6472C117.618 27.6472 116.361 25.353 116.361 21.8967C116.361 20.4991 116.564 17.8744 116.564 15.8023C116.564 15.1116 116.361 14.7351 115.795 14.624C115.01 14.5129 114.46 14.2935 114.46 13.6814C114.46 13.0692 114.571 12.4083 115.245 12.0643C116.391 11.4359 117.507 10.6179 118.309 9.86489C119.644 8.59182 119.896 7.27271 120.933 7.27271C121.578 7.27271 122.112 7.74401 122.112 8.85998C122.112 9.56694 121.955 11.4359 121.955 11.5768C121.955 11.6716 121.971 11.7339 122.095 11.7339C122.456 11.7339 124.184 11.593 124.625 11.593C125.443 11.593 125.898 11.8124 125.898 12.8038C125.898 13.4159 125.568 14.2963 125.191 14.7351C125.08 14.8461 124.845 14.9545 124.484 14.9545C124.124 14.9545 122.789 14.8434 122.253 14.8434C122.158 14.8434 121.984 14.8759 121.955 15.1901C121.892 15.8971 121.83 18.473 121.83 20.1388Z" fill="white"/>
<path d="M134.352 18.5055V22.4493C134.352 23.8308 134.588 24.3508 135.059 24.9007C135.514 25.4505 136.064 25.5751 136.064 26.3769C136.064 27.0053 135.734 27.4306 134.729 27.4306C133.724 27.4306 132.64 27.3358 131.744 27.3358C130.582 27.3358 129.669 27.4306 128.304 27.4306C127.518 27.4306 127.22 26.9755 127.22 26.4419C127.22 25.6726 127.849 25.2474 128.147 24.9169C128.916 23.9418 128.994 23.0154 128.994 22.2001V17.032C128.994 15.9161 128.491 15.2714 128.052 14.9734C127.705 14.7053 127.329 14.4696 127.329 13.9523C127.329 12.9934 128.491 12.9149 129.904 12.3352C131.492 11.6906 132.811 10.9998 133.407 10.9998C134.13 10.9998 134.523 11.314 134.523 12.0833C134.523 13.1668 134.349 15.0682 134.349 18.5082L134.352 18.5055ZM132.405 4.03589C133.802 4.03589 134.918 4.96225 134.918 6.39242C134.918 8.33994 132.814 9.92722 130.723 9.92722C129.214 9.92722 128.507 9.07941 128.507 7.91739C128.507 6.01592 130.392 4.03589 132.402 4.03589H132.405Z" fill="white"/>
<path d="M145.097 10.9945C149.529 10.9945 153.486 14.104 153.486 19.7299C153.486 25.0253 149.778 27.6473 145.284 27.6473C140.303 27.6473 137.099 24.2073 137.099 19.4455C137.099 14.4345 140.46 10.9945 145.095 10.9945H145.097ZM142.803 17.4194C142.803 18.958 143.039 20.9217 143.667 22.3682C144.217 23.5789 145.035 24.2696 145.978 24.2696C147.031 24.2696 148.036 23.4841 148.036 21.1438C148.036 19.6053 147.627 17.5467 146.999 16.1166C146.324 14.5916 145.46 13.8223 144.61 13.8223C143.713 13.8223 142.803 14.6079 142.803 17.4194Z" fill="white"/>
<path d="M171.553 22.9502C171.553 23.7357 171.805 24.5375 172.338 24.9926C172.921 25.4964 173.422 25.621 173.422 26.374C173.422 27.0024 172.983 27.4276 171.975 27.4276C171.049 27.4276 170.136 27.3328 169.226 27.3328C168.08 27.3328 167.639 27.4276 166.444 27.4276C165.691 27.4276 165.407 26.9726 165.407 26.439C165.407 25.6995 165.689 25.0874 165.832 24.6946C166.13 23.798 166.46 20.9567 166.46 18.4728C166.46 15.8021 165.659 14.6238 164.104 14.6238C163.161 14.6238 161.81 15.4256 161.81 17.2485V22.4491C161.81 23.8305 161.905 24.3506 162.376 24.9005C162.831 25.4503 163.381 25.5749 163.381 26.3767C163.381 27.0051 163.05 27.4303 162.045 27.4303C161.04 27.4303 160.082 27.3355 159.218 27.3355C158.072 27.3355 157.034 27.4303 155.778 27.4303C154.976 27.4303 154.694 26.9753 154.694 26.4417C154.694 25.6724 155.322 25.2472 155.604 24.9167C156.39 23.9416 156.468 23.0152 156.468 22.1999V16.482C156.468 15.4608 155.84 15.022 155.447 14.7999C155.1 14.5805 154.819 14.3611 154.819 13.8898C154.819 12.9797 155.964 12.8361 157.349 12.2077C159.123 11.3897 159.486 11.0457 160.082 11.0457C160.756 11.0457 161.135 11.3138 161.401 12.2565C161.512 12.7603 161.62 13.2316 161.872 13.2316C162.249 13.2316 164.071 10.9996 166.962 10.9996C170.559 10.9996 171.973 13.2316 171.973 16.7339C171.973 19.0579 171.547 21.7936 171.547 22.9556L171.553 22.9502Z" fill="white"/>
</svg>
