<svg width="1000" height="151" viewBox="0 0 1000 151" fill="none" xmlns="http://www.w3.org/2000/svg">
<path d="M968.372 0C950.903 0 936.758 14.1591 936.758 31.6136C936.758 49.0682 950.917 63.2273 968.372 63.2273V69.4683C968.372 69.4683 997.229 61.8857 999.796 35.0696C999.796 34.9383 999.825 34.8217 999.84 34.6904C999.927 33.6843 999.985 32.6635 1000 31.6136C1000 14.1445 985.841 0 968.386 0H968.372ZM968.182 51.9117C958.573 51.7805 950.844 46.9976 950.917 41.2377C950.99 35.4779 958.85 30.9137 968.474 31.0449C978.083 31.1762 985.812 35.9591 985.739 41.7189C985.666 47.4788 977.806 52.0429 968.182 51.9117Z" fill="#2254B1"/>
<path d="M87.7979 125.229C87.7979 104.1 115.839 97.5236 133.191 94.8113C134.27 94.6363 134.897 93.7906 134.897 92.6094V88.5557C134.897 79.7628 133.658 75.0382 128.234 75.0382C121.73 75.0382 119.091 85.683 113.827 91.0929C111.814 93.1198 108.708 94.3009 105.457 94.3009C98.7926 94.3009 91.6621 89.9118 91.6621 81.4543C91.6621 67.9368 110.094 61.5208 128.219 61.5208C147.278 61.5208 165.87 67.7764 165.87 90.4076V124.369C165.87 131.47 169.894 127.912 172.694 131.966C175.946 136.866 167.896 148.181 155.035 148.181C149.304 148.181 143.268 147 139.228 142.101C138.922 141.59 138.455 141.43 137.989 141.43C137.683 141.43 137.216 141.605 136.91 141.94C131.792 146.679 124.515 149.377 115.226 149.377C102.832 149.377 87.7979 143.807 87.7979 125.215V125.229ZM128.394 131.324H129.473C131.952 130.989 134.897 129.473 134.897 127.096V110.37C134.897 109.014 134.285 108.854 133.191 108.854C126.834 110.21 120.797 113.418 120.491 121.35C120.184 127.606 123.903 131.324 128.394 131.324Z" fill="#131313"/>
<path d="M254.352 121.407C255.242 144.636 230.03 150.236 218.072 150.688C187.275 151.854 169.631 131.964 178.657 119.089C182.551 113.577 192.365 113.023 196.783 121.436C200.326 128.45 204.613 137.593 217.066 137.127C220.012 137.01 225.524 135.012 225.276 128.581C225.013 121.611 217.562 119.934 206.217 114.991C197.045 111.054 177.17 105.907 178.847 85.2586C179.503 76.6406 185.803 61.1984 211.686 60.2214C237.729 59.2298 253.886 74.3513 247.805 87.1105C244.612 93.6723 235.746 93.6578 230.555 86.5126C227.099 81.8172 223.832 73.5347 214.66 73.8846C210.723 74.0305 206.363 75.8095 206.582 81.3506C206.903 89.7498 217.664 92.1996 223.789 93.7598C234.39 96.3992 253.579 100.861 254.367 121.393L254.352 121.407Z" fill="#131313"/>
<path d="M301.335 149.391C280.892 147.714 257.546 131.018 259.908 102.16C261.935 77.4439 282.218 59.6247 305.506 61.535C328.793 63.4452 339.453 81.3664 338.636 93.2944C337.892 102.452 331.272 105.208 321.4 107.016C315.903 107.964 295.415 110.807 295.415 110.807C293.009 110.953 292.82 113.374 293.578 115.707C296.713 124.135 302.283 128.247 310.682 128.933C317.171 129.458 323.223 125.783 326.62 123.275C331.214 119.819 333.999 120.752 335.603 122.619C340.75 127.912 327.656 151.535 301.35 149.391H301.335ZM297.661 97.0712C305.448 99.4626 312.928 97.6253 314.372 92.959C315.801 88.2928 310.653 82.5621 302.867 80.1707C295.08 77.7793 287.599 79.6166 286.156 84.2828C284.727 88.949 289.874 94.6797 297.661 97.0712Z" fill="#131313"/>
<path d="M72.0202 122.765L58.9402 102.715C58.1673 101.519 58.3132 100.163 59.4068 99.3174C67.4998 93.2075 74.3533 86.9227 77.1676 82.6648C83.0879 73.3178 79.9673 61.7689 65.6479 61.7689H65.0209C59.4068 61.7689 47.8871 61.9439 47.2601 69.2494C46.4872 76.205 52.0867 76.205 47.2601 83.6855C45.6415 86.1936 37.811 94.3012 33.9322 96.4156V58.1088C33.9322 48.9805 27.4578 41.1646 18.5045 39.4148C15.5298 38.8315 12.3217 38.4524 9.08455 38.4961V38.5544C8.85123 38.5398 8.63251 38.5107 8.38461 38.4961C4.05378 38.4961 0 39.8231 0 45.4225C0 51.7657 6.89725 52.4948 6.89725 58.1088V126.542C6.89725 133.031 0 134.649 0 141.736C0 145.863 2.97471 149.261 9.87197 149.261H18.9274C25.5621 149.261 33.9467 144.244 33.9467 134.664V114.614H34.1801C35.7403 114.614 36.834 115.635 38.2338 118.347L46.4872 134.649C52.5679 146.534 56.7675 149.261 67.981 149.261C79.1945 149.261 84.9544 142.976 84.9544 139.068C84.9544 132.608 78.8737 133.118 72.0348 122.765H72.0202Z" fill="#131313"/>
<path d="M447.636 65.107C451.953 69.4233 452.959 74.8332 452.959 81.6867C452.959 86.4258 450.247 89.1235 446.951 89.1235C444.078 89.1235 441.629 86.6737 439.004 83.8011C434.6 79.2369 429.19 72.9813 420.31 72.9813C414.725 72.9813 412.027 76.0289 412.027 79.7473C412.027 85.4926 417.948 86.7612 430.459 91.4128C443.393 96.152 456.765 102.583 456.765 121.102C456.765 137.769 442.139 149.609 419.552 149.609C410.671 149.609 396.541 147.247 390.125 141.152C387.165 138.527 384.876 132.024 384.876 123.639C384.876 119.162 386.99 116.115 391.131 116.115C393.071 116.115 394.937 117.806 396.877 119.833C401.616 124.908 407.784 133.19 418.954 133.19C424.203 133.19 426.988 130.317 426.988 126.176C426.988 119.585 417.35 118.142 406.092 112.396C396.789 107.657 386.64 102.335 386.64 86.7758C386.64 70.1961 402.534 58.866 421.651 58.866C430.532 58.866 443.131 60.47 447.622 65.1216L447.636 65.107Z" fill="#131313"/>
<path d="M499.753 108.417C499.753 118.143 502.8 125.667 510.995 125.667C514.801 125.667 517.251 123.64 519.03 122.371C519.876 121.774 520.474 121.351 521.392 121.351C522.836 121.351 524.177 122.532 524.177 126.09C524.177 128.029 523.507 130.406 522.398 132.856C519.103 139.87 510.135 148.838 495.174 148.838C477.078 148.838 470.312 136.487 470.312 117.88C470.312 110.356 471.405 96.226 471.405 85.0709C471.405 81.3525 470.312 79.3256 467.264 78.7277C463.035 78.1299 460.075 76.9487 460.075 73.6532C460.075 70.3577 460.673 66.7997 464.304 64.9478C470.472 61.5648 476.48 57.161 480.796 53.1073C487.985 46.2537 489.341 39.1523 494.926 39.1523C498.397 39.1523 501.269 41.6896 501.269 47.6974C501.269 51.5032 500.423 61.5648 500.423 62.323C500.423 62.8334 500.511 63.1688 501.182 63.1688C503.121 63.1688 512.424 62.4105 514.801 62.4105C519.205 62.4105 521.655 63.5917 521.655 68.9287C521.655 72.2242 519.876 76.9633 517.849 79.3256C517.251 79.9234 515.982 80.5067 514.043 80.5067C512.104 80.5067 504.915 79.9089 502.027 79.9089C501.517 79.9089 500.584 80.0838 500.423 81.7753C500.088 85.5812 499.753 99.4486 499.753 108.417Z" fill="#131313"/>
<path d="M575.432 94.1253C576.613 93.192 577.722 91.1651 577.722 85.2449C577.722 77.5456 574.251 71.9607 567.573 71.9607C561.827 71.9607 558.021 76.9477 555.484 85.4928C553.968 90.4798 551.766 94.3732 545.335 94.3732C538.394 94.3732 532.561 89.634 532.561 80.6661C532.561 70.0942 545.073 59.012 567.66 59.012C588.046 59.012 606.813 67.557 606.813 92.7546C606.813 103.326 605.967 111.361 605.967 120.752C605.967 123.799 606.9 127.518 610.793 127.518C612.237 127.518 613.156 127.008 614.424 127.008C615.518 127.008 616.291 128.699 616.291 130.638C616.291 141.123 607.323 148.735 596.241 148.735C587.608 148.735 582.884 145.774 579.996 140.787C579.574 140.117 579.063 139.271 578.392 139.271C577.634 139.271 576.949 140.029 576.278 140.715C571.204 145.454 562.498 149.172 554.201 149.172C539.998 149.172 529.003 141.983 529.003 127.78C529.003 114.423 538.059 106.214 552.684 100.804C562.833 97.1729 572.808 96.1522 575.432 94.1253ZM576.541 108.416C573.668 108.416 570.62 109.086 567.573 110.442C562.075 112.732 557.934 117.121 557.934 122.458C557.934 126.774 560.719 130.318 565.881 130.318C574.251 130.318 577.97 123.304 577.97 115.517C577.97 109.509 577.372 108.416 576.526 108.416H576.541Z" fill="#131313"/>
<path d="M655.866 108.417C655.866 118.143 658.914 125.667 667.109 125.667C670.915 125.667 673.365 123.64 675.144 122.371C675.989 121.774 676.587 121.351 677.506 121.351C678.95 121.351 680.291 122.532 680.291 126.09C680.291 128.029 679.62 130.406 678.512 132.856C675.217 139.87 666.249 148.838 651.288 148.838C633.191 148.838 626.425 136.487 626.425 117.88C626.425 110.356 627.519 96.226 627.519 85.0709C627.519 81.3525 626.425 79.3256 623.378 78.7277C619.149 78.1299 616.189 76.9487 616.189 73.6532C616.189 70.3577 616.787 66.7997 620.418 64.9478C626.586 61.5648 632.594 57.161 636.91 53.1073C644.099 46.2537 645.455 39.1523 651.04 39.1523C654.51 39.1523 657.383 41.6896 657.383 47.6974C657.383 51.5032 656.537 61.5648 656.537 62.323C656.537 62.8334 656.625 63.1688 657.295 63.1688C659.235 63.1688 668.538 62.4105 670.915 62.4105C675.319 62.4105 677.768 63.5917 677.768 68.9287C677.768 72.2242 675.989 76.9633 673.963 79.3256C673.365 79.9234 672.096 80.5067 670.157 80.5067C668.217 80.5067 661.028 79.9089 658.141 79.9089C657.631 79.9089 656.697 80.0838 656.537 81.7753C656.202 85.5812 655.866 99.4486 655.866 108.417Z" fill="#131313"/>
<path d="M723.279 99.6237V120.855C723.279 128.292 724.547 131.092 727.085 134.052C729.534 137.012 732.494 137.683 732.494 141.999C732.494 145.382 730.715 147.671 725.306 147.671C719.896 147.671 714.063 147.161 709.236 147.161C702.981 147.161 698.066 147.671 690.717 147.671C686.488 147.671 684.884 145.221 684.884 142.349C684.884 138.208 688.267 135.918 689.871 134.139C694.013 128.89 694.436 123.903 694.436 119.514V91.6912C694.436 85.6834 691.723 82.2129 689.361 80.6089C687.495 79.1653 685.468 77.8967 685.468 75.1115C685.468 69.9495 691.723 69.5266 699.335 66.4061C707.88 62.9356 714.982 59.2172 718.19 59.2172C722.083 59.2172 724.197 60.9087 724.197 65.05C724.197 70.8828 723.264 81.1193 723.264 99.6383L723.279 99.6237ZM712.794 21.7271C720.318 21.7271 726.326 26.7141 726.326 34.4133C726.326 44.8977 714.996 53.4428 703.739 53.4428C695.617 53.4428 691.811 48.8786 691.811 42.623C691.811 32.3864 701.96 21.7271 712.78 21.7271H712.794Z" fill="#131313"/>
<path d="M781.126 59.1877C804.982 59.1877 826.286 75.9278 826.286 106.214C826.286 134.722 806.323 148.837 782.132 148.837C755.316 148.837 738.065 130.318 738.065 104.683C738.065 77.7068 756.161 59.1877 781.111 59.1877H781.126ZM768.775 93.7761C768.775 102.059 770.043 112.631 773.426 120.417C776.386 126.935 780.79 130.654 785.865 130.654C791.537 130.654 796.947 126.425 796.947 113.826C796.947 105.544 794.745 94.4614 791.362 86.7622C787.731 78.5526 783.08 74.4113 778.501 74.4113C773.674 74.4113 768.775 78.64 768.775 93.7761Z" fill="#131313"/>
<path d="M923.547 123.551C923.547 127.78 924.903 132.096 927.776 134.546C930.911 137.258 933.608 137.929 933.608 141.983C933.608 145.366 931.246 147.655 925.822 147.655C920.835 147.655 915.92 147.145 911.021 147.145C904.853 147.145 902.476 147.655 896.045 147.655C891.991 147.655 890.46 145.205 890.46 142.333C890.46 138.352 891.977 135.056 892.75 132.942C894.354 128.115 896.133 112.819 896.133 99.4471C896.133 85.0693 891.816 78.7262 883.446 78.7262C878.372 78.7262 871.096 83.0425 871.096 92.8561V120.853C871.096 128.29 871.606 131.09 874.143 134.05C876.593 137.01 879.553 137.681 879.553 141.997C879.553 145.38 877.774 147.67 872.364 147.67C866.954 147.67 861.792 147.159 857.141 147.159C850.973 147.159 845.388 147.67 838.622 147.67C834.305 147.67 832.789 145.22 832.789 142.347C832.789 138.206 836.172 135.917 837.688 134.138C841.917 128.888 842.34 123.901 842.34 119.512V88.7294C842.34 83.232 838.957 80.8697 836.843 79.674C834.976 78.4929 833.46 77.3118 833.46 74.7745C833.46 69.875 839.628 69.1021 847.079 65.7191C856.63 61.3154 858.584 59.4635 861.792 59.4635C865.423 59.4635 867.465 60.9071 868.894 65.9816C869.492 68.6938 870.075 71.2311 871.431 71.2311C873.458 71.2311 883.271 59.2156 898.83 59.2156C918.195 59.2156 925.807 71.2311 925.807 90.0855C925.807 102.597 923.518 117.325 923.518 123.58L923.547 123.551Z" fill="#131313"/>
</svg>
