<svg width="1698" height="622" viewBox="0 0 1698 622" fill="none" xmlns="http://www.w3.org/2000/svg">
<path d="M1451.86 621.959C1407.94 621.959 1367.26 611.173 1329.83 589.6C1292.67 567.768 1263.17 538.268 1241.33 501.101C1219.5 463.673 1208.59 422.867 1208.59 378.683C1208.59 333.978 1219.5 292.912 1241.33 255.485C1263.43 218.058 1293.19 188.428 1330.61 166.595C1368.04 144.763 1408.72 133.847 1452.64 133.847C1496.83 133.847 1537.63 144.763 1575.06 166.595C1612.49 188.428 1642.12 218.058 1663.95 255.485C1686.04 292.912 1697.09 333.978 1697.09 378.683C1697.09 422.867 1686.04 463.673 1663.95 501.101C1641.86 538.268 1611.97 567.768 1574.28 589.6C1536.85 611.173 1496.05 621.959 1451.86 621.959ZM1453.03 526.052C1478.76 526.052 1502.67 519.554 1524.77 506.559C1546.86 493.563 1564.4 475.889 1577.4 453.537C1590.39 430.925 1596.89 405.843 1596.89 378.293C1596.89 350.742 1590.39 325.661 1577.4 303.049C1564.4 280.176 1546.86 262.243 1524.77 249.247C1502.67 236.252 1478.76 229.754 1453.03 229.754C1427.04 229.754 1403 236.252 1380.91 249.247C1358.81 262.243 1341.27 280.176 1328.27 303.049C1315.28 325.661 1308.78 350.742 1308.78 378.293C1308.78 405.843 1315.28 430.925 1328.27 453.537C1341.27 475.889 1358.81 493.563 1380.91 506.559C1403 519.554 1427.04 526.052 1453.03 526.052Z" fill="#EF4444"/>
<path d="M452.245 0.912109C462.641 0.912205 467.84 6.11053 467.84 16.5068V116.389C458.648 130.002 450.823 144.536 444.508 159.783C432.175 189.561 425.826 221.484 425.827 253.715C425.828 309.292 443.079 366.623 467.84 418.421V595.068C467.84 605.465 462.641 610.663 452.245 610.663H396.494C387.397 610.663 381.809 606.114 379.729 597.018L374.271 554.132C357.637 574.665 337.494 590.909 313.843 602.865C290.191 614.561 263.289 620.409 233.14 620.409C189.735 620.409 150.229 609.623 114.621 588.051C79.2732 566.218 51.3328 536.718 30.7998 499.551C10.2669 462.384 0 421.448 0 376.743C2.74277e-06 332.298 10.2669 291.492 30.7998 254.325C51.3327 217.158 79.403 187.788 115.011 166.216C150.618 144.643 189.995 133.857 233.14 133.856C261.47 133.856 286.812 139.055 309.164 149.451C331.516 159.588 350.62 173.753 366.475 191.946V16.5068C366.475 6.11044 371.673 0.912109 382.069 0.912109H452.245ZM235.479 229.764C209.488 229.764 186.226 236.261 165.693 249.257C145.16 261.992 129.046 279.666 117.35 302.278C105.914 324.891 100.195 350.232 100.195 378.303C100.195 406.373 105.784 431.454 116.96 453.547C128.396 475.639 144.38 493.053 164.913 505.789C185.446 518.265 208.708 524.502 234.699 524.502C260.95 524.502 284.603 518.265 305.655 505.789C326.968 493.053 343.602 475.639 355.558 453.547C367.773 431.195 373.882 406.113 373.882 378.303C373.882 350.492 367.904 325.281 355.948 302.669C343.992 280.057 327.487 262.252 306.435 249.257C285.382 236.261 261.73 229.764 235.479 229.764ZM467.84 307.909C464.637 292.108 462.677 276.359 462.209 260.878L462.095 253.715C462.094 237.277 464.032 220.931 467.84 205.016V307.909Z" fill="#EF4444"/>
<path d="M671.276 44.5342C698.746 44.5346 725.946 49.9463 751.325 60.459C776.704 70.9718 799.764 86.38 819.188 105.805C838.612 125.229 854.021 148.29 864.533 173.669C875.045 199.048 880.456 226.25 880.455 253.72C880.455 406.211 730.264 588.406 671.276 588.406C612.282 588.406 462.09 406.211 462.09 253.72C462.089 226.249 467.499 199.047 478.012 173.667C488.524 148.287 503.934 125.226 523.358 105.802C542.783 86.377 565.844 70.9684 591.224 60.4561C616.604 49.9437 643.806 44.5335 671.276 44.5342ZM688.852 167.177C671.268 163.679 653.043 165.474 636.48 172.335C619.917 179.196 605.762 190.814 595.802 205.721C585.842 220.627 580.525 238.152 580.525 256.08C580.526 280.12 590.076 303.175 607.074 320.174C624.073 337.173 647.128 346.722 671.168 346.723C689.095 346.723 706.621 341.407 721.527 331.447C736.434 321.487 748.052 307.331 754.913 290.768C761.774 274.205 763.569 255.979 760.071 238.396C756.574 220.812 747.94 204.66 735.264 191.983C722.587 179.307 706.435 170.674 688.852 167.177Z" fill="#EF4444"/>
<path d="M961.796 3.33789C972.192 3.33789 977.39 8.5355 977.391 18.9316V348.369L1157.9 152.267C1163.36 146.549 1169.72 143.69 1177 143.689H1271.74C1275.9 143.69 1279.15 144.469 1281.49 146.028C1283.24 147.083 1284.41 148.376 1284.98 149.906C1253.66 173.298 1227.4 203.083 1208.13 237.325L1116.18 332.774L1175.4 416.653C1187.58 497.606 1234.38 567.219 1300.24 609.936C1300.23 609.946 1300.21 609.958 1300.2 609.969C1297.86 611.788 1294.61 612.698 1290.45 612.698H1208.19C1200.13 612.698 1193.77 609.449 1189.09 602.951L1047.57 405.68L977.391 477.805V597.104C977.39 607.5 972.192 612.698 961.796 612.698H892.79C882.394 612.698 877.195 607.5 877.195 597.104V415.188C900.617 364.79 916.721 309.456 916.722 255.76C916.722 223.528 910.373 191.606 898.04 161.828C892.302 147.975 885.318 134.711 877.195 122.191V18.9316C877.195 8.5355 882.394 3.33789 892.79 3.33789H961.796ZM877.195 218.977C879.358 231.09 880.453 243.399 880.453 255.76L880.34 262.923C880.009 273.87 878.93 284.952 877.195 296.092V218.977Z" fill="#EF4444"/>
</svg>
