<svg width="184" height="95" viewBox="0 0 184 95" fill="none" xmlns="http://www.w3.org/2000/svg">
<path d="M180.672 49.5767H167.464C167.564 52.145 169.398 54.0129 172.333 54.0129C174.568 54.0129 176.069 52.8788 176.57 51.2111H180.672C179.938 55.3471 176.836 57.6486 172.233 57.6486C166.963 57.6486 163.461 54.1797 163.461 48.9763C163.461 43.7729 166.963 40.304 172.233 40.304C177.103 40.304 180.672 43.3393 180.672 48.576V49.5767ZM167.664 46.8749H176.469C176.136 44.8736 174.602 43.5727 172.267 43.5727C169.932 43.5727 168.264 45.0404 167.664 46.8749Z" fill="#212552"/>
<path d="M141.543 45.3738C141.543 41.9049 144.244 40.2705 149.114 40.2705C151.583 40.2705 153.551 40.5373 155.352 41.2044V44.8068C154.151 44.3732 151.683 43.606 148.781 43.606C146.579 43.606 145.545 44.1397 145.545 45.107C145.545 48.0089 156.052 46.3411 156.052 52.345C156.052 55.814 153.35 57.6818 148.481 57.6818C146.012 57.6818 144.044 57.415 142.21 56.7479V53.1456C143.411 53.5792 145.879 54.3463 148.781 54.3463C151.016 54.3463 152.016 53.5792 152.016 52.6119C152.016 49.7433 141.543 51.3777 141.543 45.3738Z" fill="#212552"/>
<path d="M116.435 49.2431C116.435 43.6395 119.904 40.304 125.208 40.304C130.445 40.304 133.947 43.7729 133.98 48.9763V57.315H129.944V53.9128L129.644 53.9462V54.2464C129.644 55.7807 127.743 57.6486 124.14 57.6486C119.537 57.6486 116.435 54.3131 116.435 49.2431ZM120.405 48.9763C120.405 51.9782 122.206 53.8795 125.108 53.8795C128.51 53.8795 129.944 51.8782 129.944 48.9763C129.944 45.9743 128.11 44.0731 125.208 44.0731C122.339 44.0731 120.405 46.041 120.405 48.9763Z" fill="#212552"/>
<path d="M93.6394 57.315V32.2987H97.642V51.3778L105.114 40.6375H109.65L104.213 48.1757L111.618 57.315H106.881L101.978 51.2777L97.642 57.315H93.6394Z" fill="#212552"/>
<path d="M81.1001 49.043V57.3151H77.0975V49.5433C77.0975 43.7729 80.5665 40.4708 86.0033 40.4708V44.3733C83.0681 44.4067 81.1001 46.1411 81.1001 49.043Z" fill="#212552"/>
<path d="M56.3171 49.5099C56.3171 52.1116 58.1182 53.8794 60.7533 53.8794C63.455 53.8794 65.2562 52.1449 65.2562 49.5099V40.6375H69.2922V49.2431C69.2922 54.2797 65.9233 57.6485 60.8867 57.6485C55.65 57.6485 52.3145 54.2797 52.3145 49.2431V40.6375H56.3171V49.5099Z" fill="#212552"/>
<path d="M27.0104 48.9763C27.0104 43.7729 30.5127 40.304 35.7828 40.304C41.0195 40.304 44.5551 43.7729 44.5551 48.9763C44.5551 54.1797 41.0195 57.6486 35.7828 57.6486C30.5127 57.6486 27.0104 54.1797 27.0104 48.9763ZM30.9796 48.9763C30.9796 51.8782 32.9142 53.8795 35.7828 53.8795C38.6179 53.8795 40.5525 51.8782 40.5525 48.9763C40.5525 46.041 38.6179 44.0731 35.7828 44.0731C32.9142 44.0731 30.9796 46.041 30.9796 48.9763Z" fill="#212552"/>
<path d="M15.1689 58.4824V53.8461H14.8687V54.1462C14.8687 56.3143 12.4338 57.6485 9.53193 57.6485C4.29519 57.6485 2.22717 54.8467 2.22717 49.5766V40.6375H6.22978V49.8434C6.22978 52.6119 7.59734 53.8794 10.4992 53.8794C13.4678 53.8794 15.1689 51.9448 15.1689 49.1763V40.6375H19.2049V58.1489C19.2049 63.1521 16.0362 65.9873 10.4992 65.9873C5.46261 65.9873 2.4273 63.7859 2.4273 59.1495H6.42991C6.42991 61.5177 7.86418 62.5851 10.6326 62.5851C13.668 62.5851 15.1689 61.2175 15.1689 58.4824Z" fill="#212552"/>
<path d="M92.8579 13.8557C75.3485 14.1392 62.1449 27.4324 62.1449 27.4324C62.1449 27.4324 74.5933 10.8174 93.0224 11.1403C112.369 11.4793 123.571 27.4324 123.571 27.4324C123.571 27.4324 110.054 13.5773 92.8579 13.8557Z" fill="#212552"/>
<path d="M92.8579 80.8563C75.3485 80.5729 62.1449 67.2796 62.1449 67.2796C62.1449 67.2796 74.5933 83.8946 93.0224 83.5717C112.369 83.2328 123.571 67.2796 123.571 67.2796C123.571 67.2796 110.054 81.1348 92.8579 80.8563Z" fill="#212552"/>
</svg>
